<?xml version="1.0" encoding="utf-8"?>
<!-- Generator: Adobe Illustrator 16.2.1, SVG Export Plug-In . SVG Version: 6.00 Build 0)  -->
<!DOCTYPE svg PUBLIC "-//W3C//DTD SVG 1.1//EN" "http://www.w3.org/Graphics/SVG/1.1/DTD/svg11.dtd">
<svg version="1.1" id="Layer_1" xmlns="http://www.w3.org/2000/svg" xmlns:xlink="http://www.w3.org/1999/xlink" x="0px" y="0px"
	 width="800px" height="600px" viewBox="0 0 800 600" enable-background="new 0 0 800 600" xml:space="preserve">
<g>
	<g>
		<path fill-rule="evenodd" clip-rule="evenodd" fill="#9B59B6" d="M569.038,158.042c11.13,0,22.135,0,33.148,0
			c0.912,0,1.821,0,2.625,0c7.538-12.842,18.06-17.942,29.876-14.623c11.095,3.123,18.572,13.108,18.364,24.533
			c-0.195,11.104-7.996,20.878-18.826,23.661c-9.271,2.379-22.413-0.468-29.287-14.686c-90.927,0-181.902,0-273.101,0
			c-8.38,8.755-13.749,19.15-15.786,31.481c71.094,0,142.04,0,213.015,0c7.83-12.513,18.221-17.273,30.055-13.74
			c10.857,3.239,18.142,13.311,17.834,24.655c-0.297,11.046-8.321,20.858-19.092,23.464c-9.537,2.312-22.713-0.997-29.28-15.285
			c-70.796,0-141.656,0-212.708,0c1.843,12.742,7.274,23.495,15.979,32.664c90.804,0,181.512,0,272.172,0
			c8.12-13.417,18.111-18.445,29.997-15.154c10.999,3.049,18.528,12.898,18.476,24.189c-0.043,11.132-7.625,20.9-18.467,23.925
			c-9.338,2.615-22.419-0.308-29.402-13.981c-49.619,0-99.298,0-148.951,0c-37.626,49.212-107.718,53.646-151.137,12.365
			c-41.93-39.853-41.463-107.663,0.695-146.679c43.733-40.473,113.042-35.725,150.427,13.094c29.69,0,59.472,0,89.639,0
			c-9.385-26.377-24.034-49.165-43.948-68.519C470.808,59.719,434.25,42.493,391.84,38.603
			C297.172,29.925,220.334,92.4,199.348,172.292c-21.966,83.619,18.846,171.631,96.739,208.758
			c76.616,36.518,173.83,16.645,227.942-60.722c8.609,0,17.293,0,25.971-0.007c-31.72,58.218-108.526,111.752-202.875,99.013
			c-99.006-13.373-173.514-96.389-175.981-195.888c-2.504-101.069,68.729-185.462,163.555-204.198
			C437.901-1.138,537.754,59.31,569.038,158.042z M644.178,268.967c-0.056-9.169-7.472-16.516-16.649-16.501
			c-9.275,0.019-16.678,7.54-16.58,16.846c0.105,9.114,7.655,16.47,16.793,16.363C636.906,285.564,644.235,278.119,644.178,268.967z
			 M644.734,167.464c0.054-9.12-7.36-16.591-16.508-16.636c-9.152-0.054-16.609,7.287-16.706,16.438
			c-0.104,9.13,7.263,16.671,16.373,16.773C637.199,184.14,644.686,176.77,644.734,167.464z M552.038,201.922
			c-9.146-0.005-16.605,7.416-16.627,16.533c-0.01,9.182,7.321,16.604,16.471,16.682c9.29,0.071,16.739-7.334,16.757-16.667
			C568.655,209.375,561.181,201.927,552.038,201.922z"/>
		
			<text transform="matrix(1.0142 0 0 1 167.5356 584.6973)" fill="#2A506F" font-family="'Montserrat-Medium'" font-size="184.3427" letter-spacing="-3.944">inlets</text>
	</g>
	<text transform="matrix(1 0 0 1 538.1787 475.3936)" fill="#9B59B6" font-family="'Montserrat-SemiBold'" font-size="51.8912">PRO</text>
</g>
</svg>
