<?xml version="1.0" encoding="utf-8"?>
<!-- Generator: Adobe Illustrator 16.2.1, SVG Export Plug-In . SVG Version: 6.00 Build 0)  -->
<!DOCTYPE svg PUBLIC "-//W3C//DTD SVG 1.1//EN" "http://www.w3.org/Graphics/SVG/1.1/DTD/svg11.dtd">
<svg version="1.1" id="Layer_1" xmlns="http://www.w3.org/2000/svg" xmlns:xlink="http://www.w3.org/1999/xlink" x="0px" y="0px"
	 width="800px" height="600px" viewBox="0 0 800 600" enable-background="new 0 0 800 600" xml:space="preserve">
<g>
	<g>
		<path fill-rule="evenodd" clip-rule="evenodd" fill="#9B59B6" d="M565.268,155.644c11.021,0,21.92,0,32.819,0
			c0.907,0,1.812,0,2.604,0c7.466-12.718,17.885-17.769,29.584-14.482c10.987,3.091,18.391,12.982,18.186,24.297
			c-0.197,10.992-7.916,20.67-18.643,23.427c-9.178,2.36-22.192-0.46-29.003-14.542c-90.037,0-180.127,0-270.438,0
			c-8.296,8.671-13.615,18.96-15.631,31.175c70.398,0,140.657,0,210.939,0c7.756-12.393,18.04-17.105,29.76-13.608
			c10.753,3.209,17.967,13.182,17.663,24.416c-0.295,10.941-8.238,20.653-18.903,23.235c-9.447,2.29-22.495-0.988-28.999-15.137
			c-70.104,0-140.274,0-210.634,0c1.824,12.62,7.203,23.268,15.824,32.349c89.917,0,179.739,0,269.517,0
			c8.04-13.288,17.935-18.269,29.709-15.008c10.893,3.017,18.342,12.772,18.296,23.955c-0.046,11.021-7.555,20.693-18.291,23.694
			c-9.248,2.584-22.199-0.307-29.115-13.851c-49.134,0-98.33,0-147.496,0c-37.263,48.735-106.669,53.125-149.668,12.247
			c-41.521-39.468-41.061-106.615,0.688-145.249c43.307-40.078,111.943-35.378,148.957,12.964c29.402,0,58.897,0,88.77,0
			c-9.293-26.117-23.803-48.686-43.521-67.849c-30.246-29.399-66.451-46.46-108.447-50.31
			c-93.744-8.594-169.832,53.273-190.616,132.386c-21.754,82.805,18.662,169.957,95.796,206.724
			c75.869,36.16,172.138,16.485,225.721-60.131c8.527,0,17.125,0,25.72-0.004c-31.414,57.646-107.468,110.66-200.899,98.043
			c-98.04-13.241-171.823-95.449-174.266-193.977c-2.481-100.084,68.057-183.655,161.962-202.208
			C435.409-1.987,534.289,57.871,565.268,155.644z M639.677,265.485c-0.061-9.077-7.4-16.352-16.487-16.339
			c-9.19,0.017-16.518,7.464-16.416,16.682c0.099,9.023,7.575,16.309,16.623,16.202
			C632.477,281.924,639.735,274.546,639.677,265.485z M640.226,164.97c0.051-9.03-7.29-16.429-16.345-16.475
			c-9.064-0.049-16.449,7.22-16.547,16.279c-0.1,9.04,7.194,16.512,16.215,16.611C632.762,181.485,640.176,174.189,640.226,164.97z
			 M548.431,199.095c-9.057-0.005-16.442,7.343-16.462,16.371c-0.013,9.091,7.25,16.446,16.31,16.52
			c9.199,0.07,16.579-7.265,16.594-16.506C564.889,206.475,557.487,199.098,548.431,199.095z"/>
	</g>
	<g>
		<path fill="#2A506F" d="M184.804,459.485c-2.285-2.19-3.425-4.866-3.425-8.032c0-3.163,1.14-5.87,3.425-8.123
			c2.282-2.25,5.152-3.377,8.608-3.377c3.454,0,6.323,1.066,8.608,3.194c2.283,2.131,3.425,4.777,3.425,7.94
			c0,3.286-1.143,6.056-3.425,8.307c-2.285,2.253-5.154,3.377-8.608,3.377C189.956,462.771,187.086,461.676,184.804,459.485z
			 M184.526,481.391h17.772v96.75h-17.772V481.391z"/>
		<path fill="#2A506F" d="M313.652,491.157c7.342,7.119,11.015,17.556,11.015,31.307v55.677h-17.772v-53.669
			c0-9.369-2.285-16.429-6.85-21.175c-4.567-4.746-11.108-7.119-19.624-7.119c-9.627,0-17.217,2.77-22.771,8.306
			c-5.554,5.539-8.331,13.479-8.331,23.822v49.835h-17.772v-96.75h17.032v14.604c3.578-4.989,8.423-8.822,14.532-11.501
			c6.109-2.676,13.052-4.016,20.827-4.016C296.403,480.479,306.308,484.038,313.652,491.157z"/>
		<path fill="#2A506F" d="M352.992,442.691h17.772v135.449h-17.772V442.691z"/>
		<path fill="#2A506F" d="M488.32,535.607h-79.605c1.11,8.52,4.906,15.365,11.386,20.536c6.479,5.174,14.532,7.759,24.159,7.759
			c11.724,0,21.165-3.894,28.325-11.684l9.812,11.318c-4.443,5.111-9.968,9.008-16.569,11.683
			c-6.604,2.679-13.978,4.017-22.123,4.017c-10.367,0-19.562-2.1-27.584-6.298c-8.024-4.199-14.226-10.069-18.605-17.616
			c-4.382-7.544-6.572-16.064-6.572-25.557c0-9.369,2.129-17.826,6.387-25.374c4.258-7.544,10.119-13.417,17.587-17.615
			c7.466-4.199,15.889-6.298,25.27-6.298c9.378,0,17.741,2.099,25.085,6.298c7.342,4.198,13.081,10.071,17.218,17.615
			c4.134,7.548,6.201,16.187,6.201,25.922C488.69,531.654,488.566,533.417,488.32,535.607z M418.805,502.932
			c-5.739,5.111-9.104,11.806-10.09,20.08h62.944c-0.989-8.152-4.351-14.814-10.09-19.989c-5.739-5.171-12.866-7.758-21.383-7.758
			C431.671,495.265,424.543,497.82,418.805,502.932z"/>
		<path fill="#2A506F" d="M563.854,572.481c-2.592,2.19-5.803,3.865-9.627,5.021c-3.827,1.155-7.775,1.734-11.849,1.734
			c-9.875,0-17.526-2.616-22.956-7.85c-5.432-5.231-8.146-12.716-8.146-22.453v-53.121h-16.661v-14.422h16.661v-21.175h17.772
			v21.175h28.14v14.422h-28.14v52.391c0,5.233,1.325,9.25,3.98,12.048c2.652,2.801,6.447,4.198,11.386,4.198
			c5.429,0,10.058-1.52,13.885-4.563L563.854,572.481z"/>
		<path fill="#2A506F" d="M585.696,576.041c-7.405-2.128-13.208-4.837-17.402-8.123l7.405-13.873
			c4.318,3.043,9.562,5.476,15.735,7.302c6.17,1.825,12.404,2.738,18.698,2.738c15.551,0,23.326-4.382,23.326-13.144
			c0-2.921-1.05-5.231-3.146-6.937c-2.101-1.703-4.722-2.95-7.868-3.742c-3.147-0.791-7.622-1.672-13.422-2.647
			c-7.9-1.215-14.348-2.615-19.347-4.198c-4.998-1.58-9.288-4.259-12.866-8.032c-3.581-3.771-5.369-9.064-5.369-15.882
			c0-8.762,3.703-15.79,11.108-21.084s17.338-7.94,29.806-7.94c6.54,0,13.081,0.793,19.624,2.373
			c6.54,1.583,11.909,3.714,16.106,6.389l-7.591,13.874c-8.024-5.111-17.466-7.667-28.325-7.667c-7.529,0-13.269,1.218-17.217,3.65
			c-3.951,2.437-5.924,5.659-5.924,9.676c0,3.166,1.11,5.658,3.332,7.484c2.222,1.825,4.967,3.166,8.238,4.016
			c3.269,0.853,7.868,1.825,13.792,2.921c7.897,1.341,14.284,2.77,19.161,4.29c4.874,1.522,9.04,4.106,12.496,7.758
			c3.454,3.651,5.184,8.763,5.184,15.334c0,8.762-3.795,15.73-11.385,20.901c-7.591,5.174-17.929,7.759-31.01,7.759
			C600.812,579.236,593.101,578.169,585.696,576.041z"/>
	</g>
</g>
</svg>
