<?xml version="1.0" encoding="utf-8"?>
<!-- Generator: Adobe Illustrator 16.2.1, SVG Export Plug-In . SVG Version: 6.00 Build 0)  -->
<!DOCTYPE svg PUBLIC "-//W3C//DTD SVG 1.1//EN" "http://www.w3.org/Graphics/SVG/1.1/DTD/svg11.dtd">
<svg version="1.1" id="Layer_1" xmlns="http://www.w3.org/2000/svg" xmlns:xlink="http://www.w3.org/1999/xlink" x="0px" y="0px"
	 width="800px" height="600px" viewBox="0 0 800 600" enable-background="new 0 0 800 600" xml:space="preserve">
<g>
	<g>
		<g>
			
				<text transform="matrix(1.0142 0 0 1 128.083 588.4775)" fill="#2A506F" font-family="'Montserrat-Medium'" font-size="126.4883" letter-spacing="-2.958">inlets</text>
		</g>
		<text transform="matrix(1 0 0 1 470.2422 589.5361)" fill="#9B59B6" font-family="'Montserrat-SemiBold'" font-size="97.1137">PRO</text>
	</g>
	<path fill-rule="evenodd" clip-rule="evenodd" fill="#9B59B6" d="M587.398,171.502c12.558,0,24.97,0,37.4,0c1.027,0,2.052,0,2.96,0
		c8.499-14.489,20.368-20.241,33.704-16.498c12.518,3.523,20.95,14.789,20.719,27.678c-0.225,12.527-9.026,23.555-21.245,26.694
		c-10.454,2.686-25.28-0.527-33.034-16.569c-102.582,0-205.222,0-308.109,0c-9.456,9.877-15.515,21.608-17.81,35.517
		c80.207,0,160.247,0,240.317,0c8.837-14.117,20.551-19.489,33.912-15.5c12.243,3.652,20.47,15.016,20.117,27.815
		c-0.338,12.461-9.385,23.53-21.532,26.47c-10.77,2.608-25.626-1.125-33.045-17.242c-79.868,0-159.81,0-239.964,0
		c2.078,14.372,8.201,26.505,18.027,36.849c102.438,0,204.769,0,307.057,0c9.156-15.135,20.429-20.81,33.845-17.096
		c12.403,3.439,20.896,14.552,20.836,27.289c-0.046,12.562-8.6,23.58-20.829,26.997c-10.533,2.944-25.288-0.352-33.177-15.779
		c-55.968,0-112.018,0-168.042,0c-42.447,55.526-121.517,60.521-170.503,13.952c-47.312-44.964-46.781-121.463,0.78-165.48
		c49.339-45.662,127.532-40.306,169.709,14.771c33.488,0,67.099,0,101.129,0c-10.587-29.758-27.112-55.466-49.578-77.304
		c-34.469-33.492-75.714-52.925-123.561-57.314c-106.796-9.787-193.485,60.696-217.163,150.827
		c-24.782,94.335,21.267,193.63,109.143,235.52c86.436,41.194,196.108,18.776,257.159-68.512c9.707,0,19.512,0,29.298-0.006
		c-35.786,65.681-122.436,126.078-228.881,111.707c-111.693-15.09-195.752-108.749-198.535-220.998
		c-2.83-114.026,77.535-209.234,184.517-230.374C439.455-8.083,552.099,60.112,587.398,171.502z M672.174,296.643
		c-0.067-10.344-8.44-18.63-18.79-18.616c-10.465,0.023-18.818,8.508-18.705,19.006c0.12,10.282,8.637,18.581,18.943,18.459
		C663.969,315.369,672.232,306.969,672.174,296.643z M672.796,182.129c0.063-10.287-8.304-18.716-18.619-18.771
		c-10.329-0.057-18.741,8.224-18.847,18.549c-0.121,10.3,8.188,18.808,18.463,18.922
		C664.297,200.945,672.735,192.628,672.796,182.129z M568.219,221.004c-10.316-0.004-18.735,8.365-18.761,18.652
		c-0.007,10.358,8.264,18.733,18.589,18.821c10.478,0.081,18.882-8.273,18.898-18.804
		C586.966,229.413,578.531,221.012,568.219,221.004z"/>
</g>
</svg>
